<?xml version="1.0" encoding="UTF-8"?>
<svg version="1.1" xmlns="http://www.w3.org/2000/svg" width="666" height="375">
<path d="M0,0 L99,0 L110,2 L126,10 L128,14 L131,15 L136,23 L138,29 L138,58 L135,67 L127,78 L117,85 L106,89 L78,92 L86,99 L94,106 L99,109 L103,113 L105,114 L105,116 L109,118 L122,128 L128,131 L137,130 L141,126 L143,126 L144,21 L146,13 L153,5 L159,1 L163,0 L203,0 L210,3 L216,8 L221,16 L223,25 L223,54 L292,54 L293,53 L294,21 L298,12 L305,4 L313,0 L354,0 L361,3 L370,12 L373,20 L373,140 L370,145 L365,148 L301,148 L295,144 L294,141 L293,93 L292,92 L226,91 L224,92 L223,137 L220,145 L215,148 L67,148 L58,144 L52,139 L47,135 L47,133 L43,131 L33,123 L33,121 L28,119 L18,110 L8,102 L8,100 L4,99 L-3,92 L-6,87 L-6,76 L-1,68 L10,61 L14,60 L63,59 L70,56 L72,53 L72,42 L66,37 L62,36 L1,35 L-6,31 L-10,24 L-11,14 L-8,6 L-3,1 Z " fill="#FCCE02" transform="translate(221,150)"/>
<path d="M0,0 L40,0 L48,3 L56,11 L60,19 L61,27 L60,115 L55,128 L48,137 L39,143 L32,146 L22,148 L-77,148 L-82,145 L-84,138 L-84,122 L-82,116 L-79,113 L-75,112 L-25,111 L-20,106 L-19,20 L-16,12 L-9,4 Z " fill="#FCCE02" transform="translate(141,150)"/>
<path d="M0,0 L9,0 L18,3 L26,7 L29,10 L29,12 L31,12 L38,23 L39,37 L37,47 L32,56 L24,63 L17,66 L10,68 L-2,68 L-12,65 L-22,57 L-27,49 L-30,38 L-30,31 L-27,20 L-20,10 L-14,5 Z " fill="#FCCF02" transform="translate(399,67)"/>
<path d="M0,0 L14,0 L21,3 L27,5 L37,15 L41,24 L42,37 L40,46 L36,54 L27,63 L15,67 L6,68 L-10,64 L-18,57 L-23,51 L-26,42 L-27,33 L-24,19 L-20,13 L-11,4 Z " fill="#FBCE03" transform="translate(155,68)"/>
<path d="M0,0 L11,0 L24,5 L32,12 L38,22 L40,35 L38,46 L32,56 L25,62 L22,65 L11,68 L0,68 L-13,64 L-23,55 L-27,48 L-28,45 L-28,26 L-25,18 L-16,7 L-4,1 Z " fill="#FBCE02" transform="translate(550,67)"/>
<path d="M0,0 L2,2 L3,6 L3,126 L0,131 L-5,134 L-69,134 L-75,130 L-76,127 L-77,79 L-78,78 L-144,77 L-146,78 L-147,123 L-148,123 L-148,75 L-78,75 L-74,77 L-73,125 L-68,130 L-6,130 L-2,128 L1,128 Z " fill="#A58B24" transform="translate(591,164)"/>
<path d="M0,0 L5,2 L12,5 L12,7 L14,7 L18,12 L22,13 L25,17 L25,20 L30,21 L33,23 L34,27 L41,29 L190,29 L194,25 L196,25 L197,23 L196,28 L192,32 L190,33 L42,33 L33,29 L27,24 L22,20 L22,18 L18,16 L8,8 L8,6 L3,4 Z " fill="#DAAE06" transform="translate(246,265)"/>
<path d="M0,0 L99,0 L110,2 L126,10 L128,14 L131,15 L130,17 L125,15 L123,11 L116,9 L116,7 L104,6 L104,4 L93,3 L11,3 L-1,4 L-4,5 L-4,7 L-6,7 L-7,12 L-7,27 L-5,27 L-5,29 L-3,29 L-2,31 L4,33 L62,34 L62,35 L1,35 L-6,31 L-10,24 L-11,14 L-8,6 L-3,1 Z " fill="#E0D632" transform="translate(221,150)"/>
<path d="M0,0 L40,0 L47,3 L53,8 L58,16 L60,25 L60,54 L127,55 L127,56 L96,57 L59,57 L57,54 L56,17 L51,12 L47,9 L41,6 L38,4 L38,2 L6,3 L-2,4 L-7,9 L-11,11 L-15,13 L-15,15 L-17,15 L-15,10 L-6,2 Z " fill="#FCE81D" transform="translate(384,150)"/>
<path d="M0,0 L6,0 L5,2 L-9,9 L-19,11 L-118,11 L-120,10 L-121,6 L-118,7 L-17,7 L-5,3 L0,2 Z " fill="#DEB106" transform="translate(182,287)"/>
<path d="M0,0 L4,4 L7,12 L7,41 L4,50 L-4,61 L-14,68 L-25,72 L-53,75 L-45,82 L-37,89 L-37,90 L-42,90 L-43,87 L-45,86 L-45,84 L-55,81 L-54,76 L-56,76 L-55,72 L-33,70 L-17,66 L-14,66 L-12,62 L-6,58 L-1,52 L1,52 L2,45 L4,41 L4,13 L2,4 L0,4 Z " fill="#9A862F" transform="translate(352,167)"/>
<path d="M0,0 L40,0 L48,3 L49,5 L44,5 L44,3 L39,2 L1,1 L0,4 L-2,4 L-3,7 L-9,7 L-9,9 L-14,14 L-15,16 L-15,26 L-16,28 L-17,108 L-20,108 L-20,110 L-22,109 L-20,106 L-19,20 L-16,12 L-9,4 Z " fill="#CCAC29" transform="translate(141,150)"/>
<path d="M0,0 L41,0 L48,3 L57,12 L57,14 L53,14 L50,9 L50,7 L45,7 L44,5 L37,3 L3,3 L-5,6 L-8,14 L-11,14 L-13,17 L-15,17 L-15,19 L-17,19 L-17,54 L-21,55 L-20,53 L-19,21 L-15,12 L-8,4 Z " fill="#DED22F" transform="translate(534,150)"/>
<path d="M0,0 L2,0 L1,4 L-54,4 L-54,7 L-56,7 L-55,29 L-54,35 L-57,34 L-59,27 L-59,11 L-57,5 L-54,2 L-50,1 Z " fill="#E1DB2E" transform="translate(116,261)"/>
<path d="M0,0 L2,1 L4,12 L3,100 L-2,113 L-9,122 L-10,122 L-10,116 L-8,113 L-6,113 L-3,103 L0,93 L1,83 L1,13 Z " fill="#C1A23C" transform="translate(198,165)"/>
<path d="M0,0 L1,3 L-2,8 L-6,10 L-154,10 L-160,8 L-156,7 L-152,8 L-13,8 L-6,6 L-2,2 L0,2 Z " fill="#A18726" transform="translate(442,288)"/>
<path d="M0,0 L6,0 L5,2 L-9,9 L-19,11 L-118,11 L-120,9 L-26,9 L-7,4 L-3,2 L0,2 Z " fill="#A58A2A" transform="translate(182,287)"/>
<path d="M0,0 L70,0 L70,2 L4,2 L2,3 L1,48 L0,48 Z " fill="#7B6C10" transform="translate(443,239)"/>
<path d="M0,0 L6,0 L4,1 L4,3 L1,4 L-64,4 L-67,2 Z " fill="#FDE008" transform="translate(511,205)"/>
<path d="M0,0 L11,0 L24,5 L29,10 L23,9 L21,7 L12,5 L-2,5 L-9,7 L-11,6 L-11,8 L-13,8 L-13,10 L-15,10 L-16,13 L-21,14 L-15,6 L-6,2 Z " fill="#F8E920" transform="translate(550,67)"/>
<path d="M0,0 L9,0 L18,3 L26,7 L27,9 L15,7 L15,5 L8,4 L8,2 L0,3 L-8,6 L-11,8 L-14,8 L-14,10 L-16,10 L-16,13 L-18,13 L-18,15 L-24,17 L-22,12 L-14,5 Z " fill="#B7B440" transform="translate(399,67)"/>
<path d="M0,0 L0,3 L-3,4 L-50,5 L-57,7 L-59,9 L-66,10 L-61,5 L-54,2 L-2,1 Z " fill="#FEEA14" transform="translate(289,209)"/>
<path d="M0,0 L3,1 L0,2 L0,4 L-28,7 L-20,14 L-12,21 L-12,22 L-17,22 L-18,19 L-20,18 L-20,16 L-30,13 L-29,8 L-31,8 L-30,4 L-8,2 Z " fill="#B39915" transform="translate(327,235)"/>
<path d="M0,0 L1,0 L1,29 L68,30 L68,31 L37,32 L1,32 L0,30 Z " fill="#6A6A2E" transform="translate(443,175)"/>
<path d="M0,0 L5,2 L12,5 L12,7 L14,7 L18,12 L22,13 L25,17 L25,20 L30,21 L33,23 L34,27 L38,29 L34,30 L27,24 L22,20 L22,18 L18,16 L8,8 L8,6 L3,4 Z " fill="#BE9C19" transform="translate(246,265)"/>
<path d="M0,0 L7,6 L10,11 L13,17 L14,30 L12,39 L8,47 L7,44 L10,38 L11,29 L9,24 L7,13 L4,7 L0,2 Z " fill="#FAD813" transform="translate(183,75)"/>
<path d="M0,0 L1,3 L-1,17 L-1,26 L3,34 L3,37 L8,39 L9,43 L11,44 L8,44 L2,39 L-2,32 L-5,21 L-5,14 L-2,3 Z " fill="#C6AE2F" transform="translate(374,84)"/>
<path d="M0,0 L1,3 L1,13 L2,14 L2,19 L4,19 L4,21 L6,21 L7,23 L13,25 L71,26 L71,27 L10,27 L3,23 L-1,16 L-2,6 Z " fill="#AE9644" transform="translate(212,158)"/>
<path d="M0,0 L40,0 L48,3 L49,5 L44,5 L44,3 L39,2 L1,1 L0,4 L-2,4 L-3,7 L-9,7 L-9,9 L-16,15 L-16,12 L-9,4 Z " fill="#C1B632" transform="translate(141,150)"/>
<path d="M0,0 L3,1 L-5,8 L-16,11 L-28,11 L-38,8 L-41,5 L-34,5 L-27,8 L-16,9 L-16,7 L-10,6 L-9,4 L-2,3 L-2,1 Z " fill="#B38D31" transform="translate(425,124)"/>
<path d="M0,0 L4,1 L-6,6 L-11,11 L-13,14 L-14,22 L-14,26 L-11,27 L-10,31 L-4,34 L-4,36 L-2,36 L0,39 L-1,42 L-2,39 L-6,38 L-13,31 L-16,26 L-16,15 L-11,7 Z " fill="#A88C1C" transform="translate(231,211)"/>
<path d="M0,0 L1,3 L-1,10 L-3,10 L-5,25 L-3,25 L0,33 L0,40 L2,40 L4,44 L0,42 L-4,37 L-6,31 L-6,12 L-3,4 Z " fill="#AD902B" transform="translate(528,81)"/>
<path d="M0,0 L2,1 L2,3 L4,3 L11,14 L12,28 L10,38 L7,43 L6,41 L7,36 L9,36 L8,11 L5,11 L5,9 L3,9 L0,5 Z " fill="#968C41" transform="translate(426,76)"/>
<path d="M0,0 L4,5 L7,12 L8,49 L5,46 L4,9 L0,5 Z " fill="#E4C63D" transform="translate(436,158)"/>
<path d="M0,0 L1,3 L-5,12 L-10,18 L-22,25 L-29,26 L-26,23 L-21,21 L-18,21 L-16,17 L-10,13 L-5,7 L-3,7 L-3,3 Z " fill="#BD991E" transform="translate(356,212)"/>
<path d="M0,0 L1,0 L1,10 L-1,18 L-8,28 L-10,29 L-10,23 L-8,20 L-6,20 L-3,10 Z " fill="#E8B60F" transform="translate(198,258)"/>
<path d="M0,0 L63,0 L65,1 L65,3 L67,3 L66,6 L58,3 L58,1 L0,1 Z " fill="#CFA917" transform="translate(225,183)"/>
<path d="M0,0 L1,4 L-1,4 L0,26 L1,32 L-2,31 L-4,24 L-4,8 L-2,2 Z " fill="#E1BF1B" transform="translate(61,264)"/>
<path d="M0,0 L3,1 L-5,9 L-17,13 L-26,14 L-32,13 L-32,12 L-17,10 L-4,3 Z " fill="#AF8E1D" transform="translate(187,122)"/>
<path d="M0,0 L0,3 L-2,5 L-70,5 L-71,3 L-7,3 Z " fill="#D6AA08" transform="translate(592,291)"/>
<path d="M0,0 L3,1 L1,6 L-6,12 L-9,15 L-20,18 L-31,18 L-31,17 L-20,16 L-20,14 L-11,14 L-11,12 L-8,12 L-7,8 L-3,8 L-4,5 L0,4 Z " fill="#AC8F2F" transform="translate(581,117)"/>
<path d="M0,0 L6,0 L5,2 L-9,9 L-14,10 L-26,10 L-22,8 L-7,4 L-3,2 L0,2 Z " fill="#BB9317" transform="translate(182,287)"/>
<path d="M0,0 L1,0 L1,6 L-1,6 L-1,41 L-5,42 L-4,40 L-3,8 Z " fill="#BCA739" transform="translate(518,163)"/>
<path d="M0,0 L6,0 L4,1 L4,3 L-31,3 L-31,1 Z " fill="#F0E023" transform="translate(511,205)"/>
<path d="M0,0 L9,2 L22,9 L24,13 L27,14 L26,16 L21,14 L19,10 L12,8 L12,6 L8,6 L8,4 L5,4 L5,2 L0,1 Z " fill="#BDBC38" transform="translate(325,151)"/>
<path d="M0,0 L40,0 L47,3 L52,8 L49,8 L49,6 L42,5 L41,2 L0,1 Z " fill="#B1AE3A" transform="translate(384,150)"/>
<path d="M0,0 L1,4 L-5,6 L-57,6 L-57,5 L-8,4 L-1,1 Z " fill="#CAC33F" transform="translate(292,205)"/>
<path d="M0,0 L4,0 L4,2 L-3,7 L-3,9 L-8,11 L-11,12 L-11,14 L-13,14 L-11,9 L-2,1 Z " fill="#D8CC30" transform="translate(380,151)"/>
<path d="M0,0 L2,0 L1,6 L-1,11 L-4,11 L-6,14 L-8,14 L-7,7 Z " fill="#D4C325" transform="translate(527,153)"/>
<path d="M0,0 L3,4 L5,13 L4,26 L-1,36 L-2,33 L1,27 L2,23 L2,10 L0,4 Z " fill="#A38F33" transform="translate(192,86)"/>
<path d="M0,0 L5,2 L8,4 L8,6 L13,7 L16,9 L17,13 L21,15 L17,16 L10,10 L5,6 L5,4 L1,2 Z " fill="#B7971B" transform="translate(263,279)"/>
<path d="M0,0 L1,3 L1,13 L2,14 L2,19 L4,19 L4,21 L6,21 L7,23 L13,25 L12,27 L6,25 L1,20 L-2,12 L-1,2 Z " fill="#947F2E" transform="translate(212,158)"/>
<path d="M0,0 L3,1 L5,8 L10,10 L11,14 L16,15 L18,18 L12,17 L2,7 L0,3 Z " fill="#A98C1F" transform="translate(131,114)"/>
<path d="M0,0 L2,2 L4,15 L2,26 L-1,30 L0,20 L1,13 Z " fill="#BAA83E" transform="translate(586,87)"/>
<path d="M0,0 L1,3 L-1,6 L-9,9 L-16,8 L-22,5 L-22,3 L-17,4 L-16,5 L-3,5 L-1,1 Z " fill="#F9E919" transform="translate(363,277)"/>
<path d="M0,0 L3,0 L3,50 L2,50 L1,3 Z " fill="#BEA754" transform="translate(513,240)"/>
<path d="M0,0 L4,1 L-6,6 L-11,11 L-13,14 L-15,24 L-16,24 L-16,15 L-11,7 Z " fill="#ABA446" transform="translate(231,211)"/>
<path d="M0,0 L2,0 L6,8 L6,11 L11,13 L12,17 L14,18 L11,18 L5,13 L1,6 Z " fill="#AD8E2A" transform="translate(371,110)"/>
<path d="M0,0 L8,0 L18,5 L19,7 L7,5 L7,3 L0,2 Z " fill="#F8E725" transform="translate(407,69)"/>
<path d="M0,0 L5,1 L15,11 L15,13 L11,13 L8,8 L8,6 L3,6 L2,4 L-1,2 Z " fill="#CAC430" transform="translate(576,151)"/>
<path d="M0,0 L1,4 L0,8 L-1,29 L-3,25 L-4,16 L-1,2 Z " fill="#BAA639" transform="translate(132,85)"/>
<path d="M0,0 L11,0 L19,3 L16,4 L10,3 L0,3 L-9,5 L-6,2 Z " fill="#A6A544" transform="translate(550,67)"/>
<path d="M0,0 L4,1 L9,6 L11,7 L11,9 L15,11 L15,12 L8,12 L8,9 L5,8 L5,5 L2,5 Z " fill="#B3AB33" transform="translate(315,257)"/>
<path d="M0,0 L7,6 L9,16 L7,18 L3,9 Z " fill="#FADE12" transform="translate(190,155)"/>
<path d="M0,0 L7,0 L4,3 L-3,5 L-5,7 L-12,8 L-7,3 Z " fill="#F5E320" transform="translate(235,211)"/>
<path d="M0,0 L5,1 L6,3 L6,14 L2,16 L2,3 Z " fill="#DEBC2E" transform="translate(291,189)"/>
<path d="M0,0 L9,6 L14,12 L9,12 L8,9 L6,8 L6,6 L1,4 Z " fill="#AFA42A" transform="translate(301,245)"/>
<path d="M0,0 L2,1 L2,17 L4,17 L5,21 L2,20 L0,13 Z " fill="#B49D3D" transform="translate(57,275)"/>
<path d="M0,0 L21,1 L21,2 L16,3 L3,3 L0,2 Z " fill="#DBAB16" transform="translate(149,131)"/>
<path d="M0,0 L5,1 L8,4 L13,10 L13,13 L11,13 L7,7 L0,1 Z " fill="#F8E71A" transform="translate(176,73)"/>
<path d="M0,0 L2,0 L2,2 L6,2 L6,4 L11,5 L18,8 L18,9 L11,8 L4,5 L0,1 Z " fill="#B18E27" transform="translate(532,125)"/>
<path d="M0,0 L9,0 L13,2 L0,3 L-1,4 L-7,4 L-4,1 Z " fill="#AFB342" transform="translate(399,67)"/>
<path d="M0,0 L1,3 L-1,10 L-3,10 L-4,15 L-6,15 L-4,5 Z " fill="#AFA333" transform="translate(528,81)"/>
<path d="M0,0 L1,3 L-6,14 L-9,16 L-8,11 L-6,8 L-4,8 L-2,4 Z " fill="#9A7F1A" transform="translate(197,271)"/>
<path d="M0,0 L3,1 L1,6 L-4,11 L-7,10 L-7,8 L-3,8 L-4,5 L0,4 Z " fill="#BE9D21" transform="translate(581,117)"/>
<path d="M0,0 L2,3 L-2,6 L-4,6 L-6,10 L-7,6 L-5,2 Z " fill="#F7D80A" transform="translate(534,79)"/>
<path d="M0,0 L1,3 L-2,5 L-4,11 L-10,12 L-8,8 Z " fill="#B6AC35" transform="translate(143,73)"/>
<path d="M0,0 L5,0 L0,4 L-5,7 L-12,8 L-9,5 L-4,3 L-1,3 Z " fill="#977B1F" transform="translate(339,230)"/>
<path d="M0,0 L1,0 L2,16 L-2,23 L-3,21 L-2,16 L0,16 Z " fill="#B49A2A" transform="translate(435,96)"/>
<path d="M0,0 L16,0 L24,3 L25,5 L20,5 L20,3 L15,2 L0,1 Z " fill="#ADAE3D" transform="translate(165,150)"/>
<path d="M0,0 L6,2 L15,10 L14,12 L0,1 Z " fill="#987F25" transform="translate(231,253)"/>
<path d="M0,0 L5,2 L7,6 L10,7 L9,9 L4,7 L2,3 L0,3 Z " fill="#B1AD31" transform="translate(342,158)"/>
<path d="M0,0 L9,2 L13,5 L14,8 L12,9 L9,6 L3,3 Z " fill="#F6E112" transform="translate(422,153)"/>
<path d="M0,0 L2,0 L1,5 L-1,5 L-2,10 L-3,19 L-4,19 L-4,9 L-2,3 Z " fill="#D5B82D" transform="translate(216,152)"/>
<path d="M0,0 L3,1 L-5,9 L-11,10 L-8,9 L-8,7 L-3,5 L-3,2 Z " fill="#8E7122" transform="translate(187,122)"/>
<path d="M0,0 L2,0 L2,3 L0,3 L0,5 L-2,5 L-3,8 L-8,9 L-2,1 Z " fill="#C0B938" transform="translate(537,72)"/>
<path d="M0,0 L2,0 L2,2 L-3,7 L-3,12 L-6,13 L-5,5 L-4,2 Z " fill="#F5D40E" transform="translate(379,82)"/>
<path d="M0,0 L7,0 L14,3 L14,4 L7,4 L0,1 Z " fill="#CAA81C" transform="translate(384,129)"/>
<path d="M0,0 L5,3 L9,7 L6,8 L2,7 Z " fill="#C3BA2D" transform="translate(330,269)"/>
<path d="M0,0 L3,4 L3,12 L5,12 L7,16 L3,14 L0,8 Z " fill="#B2931A" transform="translate(525,109)"/>
<path d="M0,0 L2,1 L2,3 L4,3 L6,6 L6,11 L5,9 L3,9 L0,5 Z " fill="#C6BF32" transform="translate(426,76)"/>
<path d="M0,0 L7,6 L9,8 L9,11 L6,11 L3,6 L0,2 Z " fill="#BEBC3E" transform="translate(183,75)"/>
<path d="M0,0 L4,4 L5,8 L0,6 L-2,1 Z " fill="#AF9116" transform="translate(517,289)"/>
<path d="M0,0 L1,4 L4,5 L5,9 L7,10 L6,13 L0,6 L-1,2 Z " fill="#A38B29" transform="translate(216,233)"/>
<path d="M0,0 L4,5 L7,12 L6,16 L5,16 L3,7 L0,5 Z " fill="#A49937" transform="translate(436,158)"/>
<path d="M0,0 L4,4 L4,7 L8,7 L7,12 L5,11 L5,9 L3,9 L1,4 Z " fill="#F9DE11" transform="translate(583,157)"/>
<path d="M0,0 L2,1 L-3,8 L-5,8 L-5,10 L-7,10 L-5,5 Z " fill="#9F9A35" transform="translate(374,155)"/>
<path d="M0,0 L3,1 L5,8 L8,9 L6,11 L1,5 Z " fill="#A48C2C" transform="translate(131,114)"/>
<path d="M0,0 L1,4 L-1,4 L-1,6 L-7,8 L-5,3 Z " fill="#D5C530" transform="translate(382,76)"/>
<path d="M0,0 L3,1 L0,2 L0,4 L-8,4 L-8,2 Z " fill="#C29C20" transform="translate(327,235)"/>
<path d="M0,0 L2,1 L4,12 L1,13 Z " fill="#A18B32" transform="translate(198,165)"/>
<path d="M0,0 L3,1 L-1,5 L-8,5 L-8,7 L-10,6 L-9,4 L-2,3 L-2,1 Z " fill="#CCA419" transform="translate(425,124)"/>
<path d="M0,0 L1,2 L-3,11 L-8,13 L-7,10 L-5,10 L-5,7 L-3,7 L-2,3 Z " fill="#DEB00F" transform="translate(193,111)"/>
<path d="M0,0 L6,2 L10,6 L4,5 L-1,1 Z " fill="#B8B63D" transform="translate(569,71)"/>
<path d="M0,0 L6,0 L5,2 L-2,6 L-4,5 L-3,2 L0,2 Z " fill="#9E811B" transform="translate(182,287)"/>
<path d="M0,0 L1,3 L-1,6 L-9,9 L-9,7 L-7,7 L-7,5 L-3,5 L-1,1 Z " fill="#F5DD1B" transform="translate(363,277)"/>
<path d="M0,0 L4,4 L6,9 L5,13 L3,9 L2,4 L0,4 Z " fill="#A59E38" transform="translate(352,167)"/>
<path d="M0,0 L7,6 L8,9 L4,9 L0,2 Z " fill="#B6B339" transform="translate(583,155)"/>
<path d="M0,0 L6,0 L3,3 L-8,4 L-8,2 L0,2 Z " fill="#B28F1C" transform="translate(417,129)"/>
<path d="M0,0 L4,0 L2,4 L-2,8 L-4,8 L-3,4 L-1,3 Z " fill="#F5D817" transform="translate(144,73)"/>
<path d="M0,0 L1,2 L5,4 L6,9 L1,8 L2,3 L0,3 Z " fill="#DBB919" transform="translate(296,240)"/>
<path d="M0,0 L9,3 L13,7 L7,6 L7,4 L3,3 L0,2 Z " fill="#B5B444" transform="translate(413,69)"/>
<path d="M0,0 L5,2 L8,4 L10,9 L6,7 L5,4 L1,2 Z " fill="#867221" transform="translate(263,279)"/>
<path d="M0,0 L1,2 L-1,8 L-1,10 L-3,10 L-4,12 L-2,2 Z " fill="#F5CE16" transform="translate(220,221)"/>
<path d="M0,0 L7,6 L8,10 L6,10 L0,2 Z " fill="#BFB63E" transform="translate(190,155)"/>
<path d="M0,0 L8,0 L8,2 L11,2 L11,4 L3,3 L3,1 Z " fill="#F9EC19" transform="translate(322,153)"/>
<path d="M0,0 L5,5 L7,10 L5,10 L5,8 L3,8 L3,6 L1,6 Z " fill="#B4AE3B" transform="translate(579,77)"/>
<path d="M0,0 L2,0 L2,2 L4,2 L4,5 L-2,5 L-1,1 Z " fill="#ECBE07" transform="translate(184,282)"/>
<path d="M0,0 L1,0 L1,9 L-2,13 L-1,3 Z " fill="#B69526" transform="translate(587,104)"/>
<path d="M0,0 L1,3 L-4,11 L-5,7 L-3,7 L-3,3 Z " fill="#93792B" transform="translate(356,212)"/>
<path d="M0,0 L9,3 L11,6 L8,6 L8,4 L1,3 Z " fill="#CEC93B" transform="translate(425,152)"/>
<path d="M0,0 L3,1 L4,11 L1,8 Z " fill="#F7DA14" transform="translate(423,75)"/>
<path d="M0,0 L4,1 L9,6 L7,8 L2,3 L2,1 Z " fill="#F7DD0A" transform="translate(338,159)"/>
<path d="M0,0 L4,2 L5,6 L7,7 L4,7 L1,5 Z " fill="#B1931B" transform="translate(378,121)"/>
<path d="M0,0 L5,2 L8,7 L2,5 Z " fill="#DFB40F" transform="translate(229,248)"/>
<path d="M0,0 L13,0 L13,1 L4,2 L0,3 Z " fill="#C2A324" transform="translate(443,239)"/>
<path d="M0,0 L5,0 L3,3 L-4,4 Z " fill="#F6DB0C" transform="translate(227,215)"/>
<path d="M0,0 L5,1 L4,12 L3,12 L2,3 Z " fill="#796813" transform="translate(291,189)"/>
<path d="M0,0 L2,0 L2,2 L6,2 L6,4 L9,5 L5,6 L0,1 Z " fill="#A08723" transform="translate(532,125)"/>
<path d="M0,0 L3,1 L4,4 L7,5 L5,8 L1,4 Z " fill="#F5C209" transform="translate(134,116)"/>
<path d="M0,0 L5,2 L6,4 L-1,4 Z " fill="#D4C02D" transform="translate(324,265)"/>
<path d="M0,0 L3,0 L3,13 L2,13 L1,3 Z " fill="#B79D39" transform="translate(513,240)"/>
</svg>
